<?xml version="1.0" encoding="UTF-8"?>
<svg id="Lag_1" data-name="Lag 1" xmlns="http://www.w3.org/2000/svg" viewBox="0 0 842.26 595.69">
  <defs>
    <style>
      .cls-1, .cls-2 {
        stroke-width: 0px;
      }

      .cls-2 {
        fill: #fff;
      }
    </style>
  </defs>
  <path class="cls-2" d="m0,0c280.75,0,561.51,0,842.26,0,0,198.56,0,397.12,0,595.69-280.75,0-561.51,0-842.26,0V0Zm467.62,337.71c-1.69.49-3,.58-3.97,1.21-2.69,1.76-5.01,4.84-7.88,5.43-8.34,1.72-14.44,8.89-23.38,8.96-2.5.02-5.08.93-7.46,1.85-4.81,1.87-9.65,1.87-14.58.84-5.09-1.07-6.44-2.61-7.54-8.05-.86-4.26.76-6.98,4.25-9.55,5.5-4.05,10.53-8.73,15.69-13.23.49-.43.63-1.4.71-2.14.54-5.11-5.44-8.65-11.15-7.11-5.81,1.57-8.96,6.39-13.33,9.73-5.5,4.2-8.42,11.29-15.58,13.61-2.95.95-4.75,3.45-3.96,6.27.33,1.17,3.48,1.85,5.44,2.17,3.23.53,5.77,1.05,6.78,5.04,1.17,4.61,4.64,8.33,9.18,9.33,6.75,1.49,13.69,3.08,20.71.75,4.78-1.58,9.59-3.21,14.51-4.19,6.13-1.21,11.79-2.94,15.96-7.95.55-.66,1.43-1.11,2.24-1.49,2.79-1.32,5.67-2.45,8.4-3.86,2.6-1.35,4.57-1.5,6.08,1.54,1.9,3.83,3.96,7.59,6.12,11.28,1.41,2.41,3.23,2.11,4.5-.11,1.86-3.26,4.13-6.5,4.99-10.05,1.42-5.83,5.29-9.9,8.75-14.25,3.73-4.69,8.02-8.95,12.11-13.34.35-.38,1.28-.69,1.63-.49.59.33,1.41,1.25,1.29,1.67-1.07,3.52,1.37,4.53,3.75,5.78.99.52,2.06,1.36,2.53,2.33,1.81,3.73,3.21,7.65,5.09,11.34,3.09,6.05,2.85,13.43,7.66,18.8,1.14,1.27,1.85,2.93,3.14,5.05,1.62-.53,3.81-.91,5.65-1.93,2.33-1.29,2.13-3.96.04-4.56-5.15-1.49-4.9-4.96-4.18-8.79-3.4-2.19-5.56-5.17-5.63-8.98-.07-3.82-.95-7.09-3.3-10.12-1.54-1.99-2.43-4.51-4.05-6.42-1.72-2.02-3.71-4.6-6.03-5.2-7.83-2.02-15.13.18-22.3,3.7-2.5,1.23-6.52,1.84-8.71.65-3.81-2.06-4.84.03-6.38,2.33-.71,1.06-1.41,2.13-2.1,3.2-2.06,3.22-4.12,6.45-5.72,8.95Zm-329.61,53.54c3.57-2.35,6.12-4.65,9.11-5.82,2.91-1.13,4.29-2.97,4.47-5.66.09-1.41-.58-3.63-1.61-4.17-1.45-.77-3.59-.61-5.34-.3-1.14.2-2.01,1.66-3.17,2.06-3.24,1.11-6.71,1.63-9.84,2.97-7.82,3.35-15.76,6.21-24.32,6.55-8.27.33-16.16,1.03-24.21-3.99-5.48-3.42-7.8-8.23-11.3-12.63-.32-.4-.23-1.27-.09-1.87,1.59-6.74,3.02-13.53,4.91-20.19,2.42-8.55,4.86-17.13,7.96-25.45,3.61-9.68,7.97-19.08,11.93-28.63,1.12-2.7,2.03-5.49,2.88-8.28,1.13-3.7,1.1-8.3,3.38-10.95,2.94-3.41,2.05-7.59,4.11-10.97.38-.63-.66-2.31-1.37-3.28-.16-.22-1.82.33-2.5.88-5.15,4.17-7.93,9.61-9.06,16.14-.61,3.55-1.7,7.09-3.13,10.4-2.98,6.95-6.63,13.62-9.44,20.63-2.98,7.43-5.25,15.15-7.96,22.69-.9,2.5-2.42,4.78-3.24,7.29-1.48,4.53-2.46,9.23-3.99,13.75-2.86,8.41-5.2,16.82-3.51,25.84,1.11,5.93,3.82,11.26,9.02,14.02,8.72,4.62,18.35,5.94,28.22,4.82,8.26-.94,16.53-1.92,24.78-2.99,2.04-.26,4.75-.24,5.92-1.5,2.74-2.94,5.29-2.69,7.38-1.37Zm530.15-63.36c-4.65,1.92-8.84,3.83-13.15,5.39-3.56,1.28-7.24,2.33-10.94,3.15-2.98.66-6.07.87-9.12,1.2-7.7.83-15.07,4.13-23.07,2.89-3.2-.49-6.48-.42-9.72-.66-.62-.05-1.5-.12-1.8-.52-1.44-1.92-3.26-2.4-5.59-3.15-7.87-2.52-11.69-12.65-9.59-19.67,1.56-5.21,5.24-8.8,8.67-12.72,2.7-3.08,6.54-3.11,9.8-4.4,2.56-1.02,6.99-1.11,8.76.46,3.44,3.04,6.2,7.27,8.13,11.51,1.95,4.28,2.35,9.25,3.81,13.79.66,2.03,2.13,3.87,3.52,5.56.47.57,2,.85,2.68.52.74-.36,1.53-1.62,1.48-2.43-.13-2.16-.9-4.28-1.08-6.44-.55-6.85-1-13.71-1.38-20.58-.28-5.14-.4-10.29-.56-15.44-.02-.75.09-1.51.25-2.25.49-2.35,1.13-4.67,1.52-7.04,1.19-7.31,2.29-14.63,3.42-21.95.99-6.37,1.98-12.75,2.97-19.12.38-2.42.92-4.83,1.1-7.26.24-3.36.29-6.75.21-10.12-.01-.56-1.08-1.35-1.8-1.55-.4-.11-1.46.7-1.57,1.22-.96,4.77-1.8,9.56-2.63,14.36-1.15,6.67-1.75,13.48-3.51,19.98-3.43,12.71-4.31,25.75-5.94,38.7-.29,2.28-1.01,5.71-2.5,6.34-1.85.79-4.83-.47-7.08-1.4-4.89-2.02-9.61-2.9-14.54-.18-2.59,1.43-5.3,2.69-8.04,3.83-4.4,1.83-6.38,4.72-5.18,7.83.06.15-.21.42-.44.84-.99-.29-2.02-.6-3.13-.92-.89,2.02-1.55,3.87-2.48,5.56-4.05,7.35.61,13.46,2.84,19.87.66,1.91,1.73,4.15,3.31,5.17,3.97,2.59,8.11,5.46,12.6,6.58,5.83,1.46,12.06,1.44,18.13,1.83,1.87.12,3.8-.53,5.69-.85,6.38-1.1,12.81-2,19.12-3.42,2.8-.63,5.38-3.33,8.02-3.27,3.22.08,5.59-1.06,8.2-2.29,1.1-.52,2.38-.78,3.6-.92,3.69-.42,7.52-4.26,6.99-8.03Zm-421.22,3.23c-2.19-3.82-7.9-4.62-11-1.48-.75.77-1.67,1.48-2.66,1.89-1.89.78-4.22.86-5.75,2.04-2.72,2.09-4.59,5.61-7.53,7.02-3.58,1.71-6.04,3.74-7.45,7.37-.39,1.01-1.37,1.91-2.29,2.59-6.91,5.1-9.5,12.36-10.07,20.5-.42,6.09,6.03,10.42,13,9.19,9.12-1.6,16.28-6.89,23.1-12.52,5.02-4.15,8.09-3.92,11.26,2.06,2.72,5.12,14.55,10.05,19.91,7.85,2.09-.85,3.62-3.07,5.4-4.67-1.99-1.19-3.83-2.85-5.98-3.5-8.18-2.48-15.67-5.34-17.74-15.16-.79-3.74-2.64-7.33-4.49-10.73-.59-1.09-2.84-1.96-4.13-1.75-1.01.17-1.97,2.08-2.46,3.4-.43,1.16-.04,2.6-.23,3.87-.62,4.06.19,8.75-5.43,10.46-1.46.45-2.64,2.5-3.51,4.06-3.16,5.7-7.91,8.32-14.38,8.3-7.59-.03-10.39-4.42-6.99-11.24.52-1.04,1.14-2.08,1.91-2.95,4.37-4.99,8.66-10.05,13.26-14.82,2.44-2.53,5.14-5.19,8.26-6.58,5.02-2.23,10.48-3.46,15.99-5.2Zm73.4,43.04c11,.04,10.06-.3,16.13-4.27,8.44-5.54,11.13-14.41,14.42-22.82,1.59-4.07,1.17-8.99,1.35-13.54.21-5.43-4.8-9.89-10.24-9.63-3.05.15-4.71,1.5-4.53,4.56.25,4.15.57,8.31,1.08,12.44.95,7.72,2.5,15.55-4.51,21.54-1.41,1.21-3,2.64-4.71,3-8.52,1.77-15.12-3.27-22.16-6.7-.33-.16-.58-.53-.79-.86-4.01-6.26-9.83-11.36-11.75-19-.35-1.41-2.37-2.76-3.92-3.44-1.63-.72-2.96.29-2.21,2.25,2.72,7.07,4.43,14.89,8.66,20.92,6.17,8.78,15.27,14.39,23.16,15.54Zm350.7-47.35c1.5,1.26,2.17,1.81,2.83,2.37,2.11,1.81,4.19,3.67,6.34,5.44,1.63,1.35,3.16,3.1,5.05,3.8,4.54,1.68,9.23,2.39,14.04.48,1.48-.59,3.31-.23,4.97-.43,1.21-.15,2.48-.31,3.58-.8,3.54-1.59,7.05-3.26,10.51-5.03,3.64-1.86,7.33-3.66,10.72-5.91,1.01-.67,1.07-2.75,1.57-4.19-.33-.24-.65-.48-.98-.73-4.92,1.97-10.64,1.89-14.63,6.31-.67.74-1.63,1.57-2.54,1.68-7.24.87-14.49,1.65-21.76,2.27-1.49.13-3.09-.42-4.58-.87-3.23-1-4.6-5.44-2.33-7.93,1.27-1.39,3.22-2.16,4.58-3.49,2.31-2.24,6.98-2.93,5.31-8.03,4.99-.11,5.88-3.99,7.23-7.55.95-2.51,2.19-5-.62-7.02-2.99-2.15-6.13-2.93-9.21-.04-3,2.82-5.59,6.4-9.08,8.3-5.77,3.13-6.54,8-6.47,13.48.04,3.29.67,6.65-4.54,7.89Zm101.89-15.21c-.22.02-.43.04-.65.06.44,4.13.88,8.26,1.3,12.39.19,1.89-.25,4.2,2.99,3.67,3.37-.55,4.71-2.32,4.14-5.27-.54-2.79-.91-5.62-1.2-8.44-.41-3.98-.57-7.99-1.05-11.96-.53-4.35-1.56-8.65-1.92-13.01-.67-8.15-1.25-16.3.66-24.43.89-3.77,1.3-7.68,1.6-11.55.92-11.58,1.71-23.17,2.51-34.76.53-7.66,1.08-15.32,1.41-22.98.06-1.39-.79-2.92-1.53-4.22-.37-.64-1.69-1.42-2.11-1.2-.76.38-1.59,1.42-1.66,2.26-.35,4.01-.37,8.04-.69,12.06-.28,3.65,1.4,7.7-2.52,10.69-.85.65-.9,2.86-.72,4.27.63,4.92,2.91,9.78-.46,14.67-.68.98-.32,2.73-.31,4.12.05,5.3.36,10.6.19,15.88-.3,9.47-1.22,18.94-1.22,28.41,0,9.78.79,19.57,1.24,29.35Zm-26.46-9.11c-4.64,1.3-6.63,4.28-7.2,8.4-.16,1.13-1,3.04-1.63,3.09-4.17.28-3.72,4.23-5.36,6.44-.3.41.56,1.68.89,2.55.78-.31,1.94-.4,2.27-.97,3.75-6.46,7.37-12.99,11.03-19.51Zm.1-4.85c.63.17,1.26.34,1.89.51l1.46-6.97c-.44-.12-.89-.23-1.33-.35-.67,2.27-1.35,4.53-2.02,6.8Z"/>
  <path class="cls-1" d="m467.62,337.71c1.6-2.5,3.65-5.73,5.72-8.95.69-1.07,1.39-2.14,2.1-3.2,1.54-2.3,2.57-4.39,6.38-2.33,2.2,1.19,6.22.58,8.71-.65,7.17-3.52,14.47-5.72,22.3-3.7,2.32.6,4.31,3.17,6.03,5.2,1.62,1.91,2.51,4.43,4.05,6.42,2.34,3.03,3.23,6.29,3.3,10.12.07,3.81,2.23,6.79,5.63,8.98-.72,3.83-.97,7.3,4.18,8.79,2.09.6,2.29,3.28-.04,4.56-1.84,1.01-4.03,1.4-5.65,1.93-1.29-2.11-2-3.77-3.14-5.05-4.81-5.37-4.57-12.75-7.66-18.8-1.88-3.68-3.28-7.61-5.09-11.34-.47-.97-1.54-1.81-2.53-2.33-2.38-1.25-4.82-2.26-3.75-5.78.13-.41-.7-1.34-1.29-1.67-.35-.2-1.28.11-1.63.49-4.1,4.4-8.38,8.65-12.11,13.34-3.46,4.35-7.34,8.42-8.75,14.25-.86,3.55-3.13,6.8-4.99,10.05-1.27,2.22-3.09,2.52-4.5.11-2.16-3.69-4.22-7.45-6.12-11.28-1.51-3.05-3.48-2.89-6.08-1.54-2.73,1.42-5.62,2.55-8.4,3.86-.81.38-1.69.83-2.24,1.49-4.17,5.01-9.83,6.74-15.96,7.95-4.92.97-9.73,2.6-14.51,4.19-7.02,2.33-13.97.74-20.71-.75-4.54-1-8.01-4.72-9.18-9.33-1.01-3.99-3.55-4.5-6.78-5.04-1.96-.32-5.11-1-5.44-2.17-.8-2.82,1.01-5.31,3.96-6.27,7.16-2.32,10.08-9.41,15.58-13.61,4.37-3.34,7.52-8.16,13.33-9.73,5.71-1.54,11.69,1.99,11.15,7.11-.08.74-.22,1.71-.71,2.14-5.16,4.49-10.19,9.18-15.69,13.23-3.49,2.57-5.12,5.29-4.25,9.55,1.1,5.44,2.45,6.98,7.54,8.05,4.93,1.03,9.76,1.03,14.58-.84,2.38-.92,4.96-1.83,7.46-1.85,8.93-.08,15.04-7.25,23.38-8.96,2.87-.59,5.19-3.67,7.88-5.43.96-.63,2.28-.72,3.97-1.21Z"/>
  <path class="cls-1" d="m138,391.26c-2.09-1.31-4.64-1.57-7.38,1.37-1.17,1.26-3.87,1.23-5.92,1.5-8.25,1.06-16.51,2.05-24.78,2.99-9.86,1.12-19.5-.2-28.22-4.82-5.19-2.75-7.9-8.08-9.02-14.02-1.69-9.02.64-17.44,3.51-25.84,1.54-4.51,2.51-9.21,3.99-13.75.82-2.51,2.34-4.79,3.24-7.29,2.71-7.55,4.97-15.26,7.96-22.69,2.81-7.01,6.46-13.68,9.44-20.63,1.42-3.31,2.51-6.85,3.13-10.4,1.13-6.52,3.91-11.97,9.06-16.14.68-.55,2.34-1.1,2.5-.88.7.97,1.75,2.65,1.37,3.28-2.06,3.37-1.17,7.56-4.11,10.97-2.28,2.65-2.26,7.25-3.38,10.95-.85,2.8-1.77,5.58-2.88,8.28-3.95,9.55-8.32,18.95-11.93,28.63-3.1,8.32-5.54,16.9-7.96,25.45-1.89,6.66-3.32,13.45-4.91,20.19-.14.6-.23,1.47.09,1.87,3.5,4.39,5.82,9.21,11.3,12.63,8.05,5.02,15.94,4.32,24.21,3.99,8.56-.34,16.5-3.19,24.32-6.55,3.13-1.34,6.6-1.86,9.84-2.97,1.16-.4,2.03-1.86,3.17-2.06,1.75-.31,3.89-.47,5.34.3,1.02.54,1.7,2.76,1.61,4.17-.18,2.69-1.56,4.53-4.47,5.66-2.99,1.16-5.53,3.46-9.11,5.82Z"/>
  <path class="cls-1" d="m668.15,327.9c.53,3.76-3.3,7.61-6.99,8.03-1.22.14-2.5.4-3.6.92-2.61,1.23-4.98,2.36-8.2,2.29-2.64-.06-5.22,2.64-8.02,3.27-6.31,1.42-12.74,2.32-19.12,3.42-1.9.33-3.82.97-5.69.85-6.07-.38-12.29-.37-18.13-1.83-4.48-1.12-8.63-3.99-12.6-6.58-1.57-1.03-2.64-3.26-3.31-5.17-2.23-6.41-6.89-12.52-2.84-19.87.93-1.69,1.59-3.54,2.48-5.56,1.11.33,2.14.63,3.13.92.23-.42.5-.69.44-.84-1.2-3.11.78-6,5.18-7.83,2.74-1.14,5.44-2.39,8.04-3.83,4.93-2.72,9.66-1.83,14.54.18,2.26.93,5.24,2.19,7.08,1.4,1.49-.64,2.21-4.06,2.5-6.34,1.63-12.95,2.51-25.99,5.94-38.7,1.75-6.5,2.36-13.32,3.51-19.98.83-4.79,1.67-9.59,2.63-14.36.11-.53,1.17-1.33,1.57-1.22.71.2,1.78.98,1.8,1.55.09,3.37.04,6.75-.21,10.12-.18,2.43-.72,4.84-1.1,7.26-.99,6.37-1.98,12.75-2.97,19.12-1.13,7.32-2.23,14.64-3.42,21.95-.39,2.37-1.03,4.69-1.52,7.04-.15.74-.27,1.5-.25,2.25.16,5.15.27,10.3.56,15.44.38,6.86.83,13.73,1.38,20.58.17,2.16.94,4.28,1.08,6.44.05.81-.74,2.07-1.48,2.43-.68.33-2.21.05-2.68-.52-1.38-1.7-2.86-3.53-3.52-5.56-1.47-4.54-1.87-9.5-3.81-13.79-1.93-4.24-4.69-8.46-8.13-11.51-1.77-1.57-6.2-1.48-8.76-.46-3.25,1.3-7.09,1.32-9.8,4.4-3.44,3.92-7.11,7.51-8.67,12.72-2.1,7.02,1.72,17.15,9.59,19.67,2.33.75,4.14,1.23,5.59,3.15.3.4,1.18.47,1.8.52,3.24.24,6.52.16,9.72.66,8,1.24,15.37-2.06,23.07-2.89,3.05-.33,6.14-.54,9.12-1.2,3.7-.82,7.37-1.86,10.94-3.15,4.32-1.56,8.51-3.46,13.15-5.39Z"/>
  <path class="cls-1" d="m246.93,331.13c-5.52,1.73-10.98,2.96-15.99,5.2-3.12,1.39-5.82,4.05-8.26,6.58-4.6,4.77-8.89,9.83-13.26,14.82-.76.87-1.39,1.91-1.91,2.95-3.4,6.82-.6,11.21,6.99,11.24,6.47.02,11.22-2.6,14.38-8.3.87-1.56,2.05-3.61,3.51-4.06,5.62-1.71,4.81-6.4,5.43-10.46.2-1.28-.19-2.71.23-3.87.49-1.32,1.46-3.23,2.46-3.4,1.29-.22,3.54.66,4.13,1.75,1.85,3.4,3.7,6.99,4.49,10.73,2.07,9.82,9.56,12.68,17.74,15.16,2.15.65,4,2.31,5.98,3.5-1.78,1.6-3.31,3.82-5.4,4.67-5.37,2.2-17.19-2.73-19.91-7.85-3.18-5.98-6.24-6.21-11.26-2.06-6.82,5.64-13.98,10.92-23.1,12.52-6.97,1.23-13.43-3.11-13-9.19.57-8.14,3.15-15.39,10.07-20.5.91-.68,1.9-1.57,2.29-2.59,1.41-3.63,3.88-5.66,7.45-7.37,2.95-1.41,4.81-4.93,7.53-7.02,1.53-1.18,3.86-1.27,5.75-2.04.98-.4,1.9-1.12,2.66-1.89,3.1-3.14,8.81-2.34,11,1.48Z"/>
  <path class="cls-1" d="m320.33,374.17c-7.89-1.15-16.99-6.75-23.16-15.54-4.24-6.03-5.94-13.86-8.66-20.92-.76-1.96.57-2.97,2.21-2.25,1.55.68,3.56,2.02,3.92,3.44,1.91,7.65,7.73,12.75,11.75,19,.21.32.46.7.79.86,7.03,3.43,13.64,8.47,22.16,6.7,1.71-.36,3.3-1.79,4.71-3,7.01-6,5.46-13.82,4.51-21.54-.51-4.13-.84-8.28-1.08-12.44-.18-3.06,1.47-4.42,4.53-4.56,5.44-.26,10.45,4.2,10.24,9.63-.18,4.55.25,9.47-1.35,13.54-3.29,8.41-5.98,17.28-14.42,22.82-6.06,3.98-5.13,4.32-16.13,4.27Z"/>
  <path class="cls-1" d="m671.03,326.82c5.21-1.25,4.58-4.6,4.54-7.89-.07-5.48.7-10.36,6.47-13.48,3.5-1.9,6.08-5.48,9.08-8.3,3.08-2.89,6.22-2.11,9.21.04,2.82,2.02,1.57,4.52.62,7.02-1.35,3.56-2.24,7.44-7.23,7.55,1.67,5.1-3,5.79-5.31,8.03-1.37,1.33-3.31,2.09-4.58,3.49-2.28,2.5-.9,6.94,2.33,7.93,1.48.46,3.08,1,4.58.87,7.27-.62,14.52-1.4,21.76-2.27.91-.11,1.87-.94,2.54-1.68,3.99-4.42,9.7-4.34,14.63-6.31.33.24.65.48.98.73-.5,1.44-.57,3.52-1.57,4.19-3.39,2.25-7.08,4.06-10.72,5.91-3.46,1.77-6.97,3.44-10.51,5.03-1.1.49-2.37.66-3.58.8-1.66.2-3.49-.16-4.97.43-4.81,1.91-9.5,1.2-14.04-.48-1.9-.7-3.42-2.45-5.05-3.8-2.15-1.77-4.23-3.63-6.34-5.44-.66-.57-1.33-1.12-2.83-2.37Z"/>
  <path class="cls-1" d="m772.92,311.62c-.44-9.78-1.23-19.57-1.24-29.35,0-9.47.93-18.93,1.22-28.41.17-5.29-.14-10.59-.19-15.88-.01-1.39-.37-3.14.31-4.12,3.37-4.89,1.09-9.75.46-14.67-.18-1.41-.13-3.62.72-4.27,3.92-2.98,2.24-7.04,2.52-10.69.31-4.01.33-8.05.69-12.06.07-.83.9-1.88,1.66-2.26.43-.21,1.75.56,2.11,1.2.74,1.29,1.59,2.82,1.53,4.22-.32,7.67-.88,15.33-1.41,22.98-.8,11.59-1.59,23.18-2.51,34.76-.31,3.87-.72,7.78-1.6,11.55-1.91,8.13-1.32,16.28-.66,24.43.36,4.36,1.39,8.66,1.92,13.01.48,3.97.64,7.98,1.05,11.96.29,2.83.66,5.66,1.2,8.44.57,2.95-.77,4.72-4.14,5.27-3.24.53-2.8-1.78-2.99-3.67-.42-4.13-.87-8.26-1.3-12.39.22-.02.43-.04.65-.06Z"/>
  <path class="cls-1" d="m746.45,302.51c-3.66,6.51-7.28,13.05-11.03,19.51-.33.57-1.49.66-2.27.97-.32-.87-1.19-2.14-.89-2.55,1.64-2.21,1.19-6.16,5.36-6.44.63-.04,1.47-1.96,1.63-3.09.57-4.12,2.56-7.11,7.2-8.4Z"/>
  <path class="cls-1" d="m746.55,297.66c.67-2.27,1.35-4.53,2.02-6.8.44.12.89.23,1.33.35l-1.46,6.97c-.63-.17-1.26-.34-1.89-.51Z"/>
</svg>